<svg xmlns="http://www.w3.org/2000/svg" xmlns:xlink="http://www.w3.org/1999/xlink" viewBox="0 0 100 125" version="1.1" x="0px" y="0px"><g stroke="none" stroke-width="1" fill="none" fill-rule="evenodd"><path d="M66.5,19 C67.3284271,19 68,19.6715729 68,20.5 L68,24 L79,24 C81.209139,24 83,25.790861 83,28 L83,77 C83,79.209139 81.209139,81 79,81 L21,81 C18.790861,81 17,79.209139 17,77 L17,28 C17,25.790861 18.790861,24 21,24 L32,24 L32,20.5 C32,19.6715729 32.6715729,19 33.5,19 C34.3284271,19 35,19.6715729 35,20.5 L35,24 L65,24 L65,20.5 C65,19.6715729 65.6715729,19 66.5,19 Z M80,40 L20,40 L20,77 C20,77.5128358 20.3860402,77.9355072 20.8833789,77.9932723 L21,78 L79,78 C79.5128358,78 79.9355072,77.6139598 79.9932723,77.1166211 L80,77 L80,40 Z M79,27 L68,27 L68,29.5 C68,30.3284271 67.3284271,31 66.5,31 C65.6715729,31 65,30.3284271 65,29.5 L65,27 L35,27 L35,29.5 C35,30.3284271 34.3284271,31 33.5,31 C32.6715729,31 32,30.3284271 32,29.5 L32,27 L21,27 C20.4871642,27 20.0644928,27.3860402 20.0067277,27.8833789 L20,28 L20,37 L80,37 L80,28 C80,27.4477153 79.5522847,27 79,27 Z M46.9044962,45.4209213 C47.6392171,45.8684067 48.2621165,46.4756212 48.727757,47.1960494 L48.8770838,47.4403214 L49.2665606,48.1145336 L49.2472709,48.138515 C50.2924349,46.8319729 51.9002459,45.9951085 53.703517,45.9951085 C54.5531628,45.9951085 55.390697,46.1849186 56.1554221,46.5490353 L56.4386626,46.6937194 L56.6688865,46.8123982 C58.1363793,47.5244709 59.8500222,47.5264434 61.3188787,46.8183157 L61.5613374,46.6937194 L61.7699206,46.5851515 C64.4975159,45.235043 67.8285744,46.26845 69.3013891,48.96348 C69.7088403,49.7090545 69.9439227,50.5350252 69.9911329,51.3806947 L70,51.6986255 L70,61 C70,67.0751322 65.0751322,72 59,72 C56.0881914,72 53.4406309,70.8686193 51.4729348,69.0214743 L51.4991751,69.046027 L51.4991751,69.046027 C50.9037042,69.6013219 50.2363332,70.0975664 49.5014916,70.5218274 C44.3279597,73.5087674 37.7366208,71.8155099 34.6301415,66.7557203 L34.4752121,66.4955479 L29.8245249,58.4403214 C28.2495421,55.7123713 29.1842069,52.224155 31.912157,50.6491722 C32.6479718,50.2243494 33.4682027,49.9699626 34.3125325,49.9029343 L34.630168,49.8866142 L34.8888872,49.8742811 C36.5244176,49.7565884 38.0165649,48.8930251 38.9333811,47.5329766 L39.0665345,47.3252768 L39.192889,47.1269627 C40.8800015,44.5939367 44.2814862,43.8233642 46.9044962,45.4209213 Z M63,49.3262562 C60.507305,50.6884963 57.492695,50.6884963 55,49.3262562 C54.602415,49.1089788 54.156599,48.9951085 53.703517,48.9951085 C52.2678332,48.9951085 51.0935263,50.1141967 51.0053188,51.5276509 L51,51.6986255 L51,61 C51,65.418278 54.581722,69 59,69 C63.3349143,69 66.8645429,65.5521622 66.9961932,61.2491793 L67,61 L67,51.6986255 C67,51.2455436 66.8861297,50.7997275 66.6688523,50.4021426 C65.9528245,49.0919192 64.3102234,48.6102284 63,49.3262562 Z M46.2790076,48.9403214 C46.0524666,48.5479409 45.730944,48.2187881 45.3439838,47.983108 C44.0687738,47.2064352 42.4053941,47.6105793 41.6287213,48.8857893 C40.1511041,51.3118713 37.5403752,52.8191763 34.700518,52.8857893 C34.2475607,52.896414 33.8045375,53.0207074 33.412157,53.2472484 C32.1708076,53.9639418 31.7128487,55.5164245 32.3387027,56.783504 L32.4226011,56.9403214 L37.0732883,64.9955479 C39.2824273,68.8218889 44.1751506,70.1328902 48.0014916,67.9237512 C48.5961426,67.5804292 49.1300426,67.1722928 49.59942,66.7134173 L49.5018225,66.5519106 C49.0026405,65.6997538 48.6148599,64.7744225 48.3584699,63.7959063 C48.2329593,63.8094771 48.1036607,63.8052012 47.9739744,63.7834023 L47.8326595,63.7526459 L47.6496423,63.7101571 C46.302299,63.445043 44.9610848,64.2231862 44.5235453,65.5263883 L44.4736244,65.6919857 L44.4264499,65.8381218 C44.1564857,66.5488516 43.3866938,66.9536578 42.6365071,66.7526459 C41.836308,66.5382332 41.3614342,65.7157277 41.5758469,64.9155286 C42.342361,62.0548592 45.1388402,60.2802072 48.0001898,60.7261205 L47.9994461,51.9207368 L46.2790076,48.9403214 Z M63.0606602,61.9393398 C63.6464466,62.5251263 63.6464466,63.4748737 63.0606602,64.0606602 C60.8180195,66.3033009 57.1819805,66.3033009 54.9393398,64.0606602 C54.3535534,63.4748737 54.3535534,62.5251263 54.9393398,61.9393398 C55.4885146,61.390165 56.357577,61.3558416 56.9467378,61.8363696 L57.0606602,61.9393398 C58.0871002,62.9657798 59.7247154,63.0085481 60.8020866,62.0676448 L60.9393398,61.9393398 C61.5251263,61.3535534 62.4748737,61.3535534 63.0606602,61.9393398 Z M39.9489704,56.2443749 C40.7605785,56.4104583 41.2838798,57.2030339 41.1177964,58.014642 C40.9614826,58.7785085 40.2502138,59.286989 39.490433,59.2057023 L39.3475292,59.1834681 L39.1355395,59.1480067 C38.3514881,59.0458151 37.5581432,59.2605749 36.9325519,59.7448467 L36.7797514,59.8715021 L36.6671103,59.9622093 C36.0497641,60.4124961 35.179547,60.3277735 34.6622421,59.7444026 C34.1126056,59.124571 34.16951,58.1765298 34.7893416,57.6268933 C36.1957935,56.3797201 38.1073606,55.8675172 39.9489704,56.2443749 Z M57.8660002,54.8591028 C58.4858318,55.4087394 58.5427362,56.3567806 57.9930997,56.9766122 C57.4778155,57.5577043 56.6123708,57.6440362 55.9954776,57.1996712 L55.8755904,57.1037116 L55.7097325,56.9670063 C55.0818199,56.48648 54.2873831,56.2757951 53.5034693,56.3823912 L53.3078125,56.4156776 L53.1649088,56.4379119 C52.405128,56.5191986 51.6938592,56.0107181 51.5375454,55.2468516 C51.371462,54.4352434 51.8947633,53.6426679 52.7063714,53.4765845 C54.5479811,53.0997268 56.4595482,53.6119297 57.8660002,54.8591028 Z M65.2936286,53.4765845 C66.1052367,53.6426679 66.628538,54.4352434 66.4624546,55.2468516 C66.3061408,56.0107181 65.594872,56.5191986 64.8350912,56.4379119 L64.6921875,56.4156776 C63.8461794,56.2425548 62.9705062,56.4464362 62.2902675,56.9670063 L62.1244096,57.1037116 C61.504578,57.6533481 60.5565368,57.5964438 60.0069003,56.9766122 C59.4572638,56.3567806 59.5141682,55.4087394 60.1339998,54.8591028 C61.5404518,53.6119297 63.4520189,53.0997268 65.2936286,53.4765845 Z M47.5875926,52.281948 C47.8341542,53.0216327 47.4724175,53.8176241 46.7737847,54.1271181 L46.6389093,54.1793146 C45.8196835,54.4523899 45.1632688,55.0667929 44.8344499,55.8577392 L44.7591655,56.0590584 C44.4971938,56.8449734 43.6477139,57.2697134 42.8617989,57.0077417 C42.0758839,56.7457701 41.6511439,55.8962901 41.9131156,55.1103751 C42.5075521,53.3270655 43.9069164,51.9277012 45.690226,51.3332647 C46.476141,51.071293 47.325621,51.496033 47.5875926,52.281948 Z" fill="#ffffff"/></g></svg>
