<svg fill="#ffffff" xmlns="http://www.w3.org/2000/svg" xmlns:xlink="http://www.w3.org/1999/xlink" version="1.1" x="0px" y="0px" viewBox="0 0 100 125" enable-background="new 0 0 100 100" xml:space="preserve"><path d="M81.888,37.801c2.09-2.621,4.795-5.286,5.543-8.67c0.068-0.306-0.142-0.633-0.477-0.626  c-7.08,0.164-13.767,2.692-20.725,3.688c-0.27-6.988,0.095-13.989-0.42-20.969c-0.026-0.348-0.409-0.649-0.744-0.427  c-1.331,0.883-2.374,2.068-3.453,3.231c-1.333,1.437-2.867,2.675-4.229,4.088c-1.417,1.471-2.765,3.008-4.197,4.466  c-0.671,0.683-1.36,1.317-1.971,2.056c-0.677,0.819-1.286,1.518-2.442,1.235c-0.758-0.185-1.503-0.817-2.142-1.241  c-0.777-0.515-1.585-0.977-2.356-1.503c-1.651-1.126-3.192-2.405-4.828-3.553c-2.911-2.042-6.591-3.162-9.115-5.72  c-0.334-0.338-0.994,0.002-0.826,0.481c1.154,3.282,1.188,6.824,1.947,10.201c0.751,3.344,1.78,6.632,2.177,10.045  c-3.264,0.032-6.525,0.191-9.751-0.429c-1.534-0.295-3.085-0.551-4.609-0.888c-1.263-0.279-2.479-0.549-3.772-0.326  c-0.327,0.056-0.435,0.468-0.295,0.726c0.722,1.336,1.785,2.437,2.539,3.754c0.865,1.509,1.872,2.883,2.871,4.306  c1.883,2.682,3.797,5.367,5.615,8.096c-3.98,1.363-7.484,3.949-11.724,4.537c-0.454,0.063-0.441,0.7-0.118,0.903  c1.207,0.759,2.221,1.732,3.258,2.701c1.017,0.95,2.113,1.698,3.247,2.495c1.997,1.403,3.705,3.135,5.872,4.237  c-3.323,1.623-7.511,2.38-9.573,5.68c-0.108,0.173-0.09,0.465,0.077,0.599c1.288,1.035,3.045,1.282,4.615,1.622  c2.195,0.475,4.254,1.403,6.391,2.078c-1.496,2.747-3.666,5.646-3.533,8.868c0.011,0.259,0.217,0.507,0.494,0.494  c2.749-0.13,5.507-0.678,8.261-0.399c-0.227,1.322-0.448,2.644-0.474,3.99c-0.008,0.384,0.423,0.603,0.744,0.427  c1.605-0.881,3.093-1.968,4.909-2.367c0.315,0.263,0.645,0.515,0.993,0.75c2.598,1.757,6.088,1.992,9.118,2.32  c2.827,0.306,5.708-0.301,8.295-1.426c0.905-0.394,1.756-0.882,2.549-1.446c0.011,0.003,0.021,0.008,0.033,0.011  c2.051,0.455,4.027,1.179,6.072,1.656c0.386,0.09,0.679-0.235,0.608-0.608c-0.259-1.361-1.035-2.701-1.097-4.098  c1.631,0.075,3.303,0.052,4.901,0.379c1.535,0.314,2.999,0.903,4.531,1.236c0.385,0.084,0.68-0.23,0.608-0.608  c-0.398-2.093-1.884-3.635-3.097-5.301c-1.302-1.788-2.076-3.884-3.34-5.709c1.563-0.555,3.202-0.855,4.767-1.411  c1.865-0.663,3.565-1.542,5.307-2.479c0.234-0.126,0.314-0.452,0.177-0.676c-1.763-2.893-5.113-4.41-6.895-7.25  c4.398-1.895,8.911-3.545,12.79-6.426c0.296-0.22,0.338-0.641,0-0.853c-3.547-2.231-7.091-4.415-11.003-5.928  c1.349-1.748,2.772-3.436,4.166-5.148C79.451,41.082,80.613,39.4,81.888,37.801z M53.264,87.53  c-2.774,0.596-5.539,0.131-8.301-0.283c-2.983-0.447-5.455-1.72-7.398-4.041c-1.838-2.196-3.066-5.016-4.05-7.674  c-0.475-1.283-0.944-2.593-1.288-3.918c-0.405-1.56-0.37-3.199-0.777-4.761c-1.668-6.414-1.197-13.407,0.331-19.82  c0.67-2.811,1.775-5.526,3.362-7.943c1.432-2.181,3.413-3.905,5.344-5.644c0.114-0.025,0.223-0.093,0.301-0.221  c0.03-0.048,0.063-0.092,0.096-0.138c0.264-0.24,0.526-0.48,0.785-0.723c0.83-0.511,1.912-0.661,2.847-0.88  c1.735-0.407,3.182-1.25,5.018-1.272c1.687-0.02,3.444,0.442,5.034,0.97c0.776,0.258,1.514,0.453,2.32,0.6  c1.18,0.217,1.718,0.93,2.409,1.819c0.933,1.2,2.071,1.969,3.324,2.799c1.697,1.125,3.01,2.933,4.12,4.609  c2.091,3.158,2.274,6.937,2.118,10.605c-0.075,1.771-0.294,3.535-0.507,5.294c-0.231,1.912-0.23,3.817-0.337,5.737  c-0.107,1.923-0.769,3.644-1.345,5.459c-0.584,1.84-1.078,3.708-1.521,5.586c-0.8,3.389-1.375,6.587-3.733,9.305  C59.33,85.4,56.338,86.87,53.264,87.53z M72.696,48.32c0.094,0.142,0.274,0.237,0.461,0.238c3.821,1.401,7.271,3.489,10.704,5.643  c-3.869,2.7-8.309,4.293-12.614,6.17c-0.254,0.111-0.292,0.461-0.177,0.676c1.616,3.024,4.971,4.534,6.893,7.301  c-1.495,0.809-2.978,1.617-4.61,2.13c-1.795,0.564-3.668,0.937-5.41,1.656c-0.365,0.151-0.463,0.514-0.218,0.826  c1.477,1.881,2.259,4.142,3.61,6.089c0.974,1.405,2.206,2.646,2.776,4.256c-1.383-0.361-2.735-0.837-4.138-1.124  c-1.684-0.344-3.5-0.245-5.21-0.349c-0.287-0.017-0.47,0.239-0.494,0.494c-0.134,1.41,0.518,2.728,0.918,4.069  c-1.527-0.402-3.026-0.902-4.558-1.286c1.102-0.935,2.069-2.029,2.884-3.24c1.816-2.697,2.146-6.151,2.908-9.229  c0.861-3.478,2.407-6.825,2.608-10.427c0.099-1.778,0.098-3.535,0.313-5.306c0.232-1.912,0.444-3.823,0.526-5.749  c0.139-3.276-0.138-6.537-1.609-9.51c-0.733-1.481-1.815-2.806-2.887-4.054c-1.187-1.381-2.625-2.171-4.039-3.271  c-1.147-0.893-1.717-2.357-2.982-3.094c-0.578-0.337-1.294-0.421-1.939-0.534c-0.924-0.162-1.797-0.555-2.697-0.815  c-1.467-0.423-3.063-0.672-4.59-0.653c-1.64,0.02-3.044,0.793-4.58,1.229c-1.146,0.325-2.363,0.491-3.35,1.061  c-0.064,0.022-0.128,0.058-0.187,0.114c-0.002,0.002-0.004,0.004-0.007,0.006c-0.324,0.212-0.62,0.474-0.874,0.81  c-2.193,2.015-4.407,3.965-6.061,6.486c-1.814,2.763-2.855,6.007-3.549,9.213c-0.801,3.695-1.103,7.494-1.048,11.269  c0.025,1.711,0.106,3.451,0.378,5.142c0.139,0.866,0.42,1.713,0.652,2.557c0.299,1.088,0.379,2.219,0.525,3.335  c0.413,3.146,1.776,6.435,3.212,9.25c0.974,1.91,2.088,3.707,3.573,5.192c-1.346,0.411-2.535,1.15-3.75,1.858  c0.091-1.145,0.296-2.274,0.488-3.409c0.04-0.236-0.06-0.569-0.345-0.608c-2.837-0.382-5.638,0.11-8.468,0.286  c0.125-3.029,2.358-5.796,3.685-8.392c0.146-0.285,0.024-0.634-0.295-0.726c-2.065-0.597-4.032-1.495-6.106-2.056  c-1.49-0.403-3.377-0.477-4.721-1.339c2.215-3.05,6.731-3.631,9.841-5.418c0.4-0.23,0.262-0.756-0.118-0.903  c-2.537-0.979-4.466-3-6.626-4.581c-1.156-0.846-2.283-1.627-3.335-2.61c-0.707-0.66-1.412-1.308-2.175-1.89  c3.977-0.886,7.358-3.36,11.253-4.54c0.292-0.088,0.476-0.452,0.295-0.726c-1.923-2.915-4.086-5.664-5.962-8.612  c-0.852-1.339-1.885-2.538-2.671-3.924c-0.692-1.221-1.605-2.29-2.348-3.472c1.241-0.025,2.472,0.403,3.687,0.614  c1.585,0.276,3.158,0.637,4.748,0.883c3.106,0.482,6.277,0.249,9.406,0.238c0.486-0.002,0.6-0.576,0.345-0.848  c-0.375-3.408-1.341-6.703-2.132-10.03c-0.702-2.956-0.822-6.047-1.561-8.991c2.44,1.875,5.48,3.005,8.007,4.732  c1.766,1.207,3.409,2.585,5.177,3.791c1.417,0.967,3.062,2.282,4.747,2.694c1.453,0.356,2.458-0.871,3.27-1.855  c1.351-1.635,2.999-3.08,4.442-4.644c1.476-1.601,2.997-3.121,4.619-4.574c1.298-1.162,2.328-2.588,3.677-3.684  c0.432,6.857,0.08,13.734,0.38,20.596c0.011,0.241,0.218,0.531,0.494,0.494c6.91-0.916,13.558-3.43,20.551-3.732  c-0.964,3.169-3.662,5.679-5.629,8.234c-2.52,3.273-5.169,6.45-7.672,9.735C72.613,47.484,72.44,48.023,72.696,48.32z"/><path d="M36.139,46.719c1.833,0.398,3.694,0.638,5.571,0.599c1.64-0.034,3.324-0.07,4.948-0.317  c1.863-0.283,3.695-0.781,5.548-1.126c1.887-0.352,3.751-0.532,5.67-0.553c0.813-0.009,1.639-0.045,2.444,0.087  c0.934,0.152,1.717,0.784,2.552,1.186c1.248,0.601,4.418,0.311,3.448-1.803c-0.496-1.081-1.408-1.536-2.501-1.872  c-1.69-0.519-3.344-1.048-5.096-1.316c-3.32-0.509-6.628,0.655-9.83,1.423c-1.808,0.433-3.555,0.968-5.434,0.95  c-1.948-0.018-3.587-0.681-5.433-1.124c-0.144-0.035-0.268-0.008-0.367,0.053c-0.808-0.273-1.637-0.716-2.429-0.304  c-0.814,0.423-1.94,1.433-1.651,2.484C33.91,46.288,35.093,46.492,36.139,46.719z M34.932,44.069  c1.043-1.188,2.301-0.064,3.533,0.004c0.068,0.004,0.127-0.006,0.181-0.023c0.834,0.253,1.647,0.541,2.526,0.683  c1.194,0.193,2.393,0.282,3.599,0.184c2.635-0.215,5.302-1.148,7.87-1.751c1.394-0.327,2.781-0.729,4.221-0.74  c1.507-0.012,3.056,0.329,4.49,0.769c1.072,0.329,2.258,0.579,3.26,1.089c0.932,0.475,0.916,1.583-0.181,1.655  c-0.754,0.049-1.413-0.359-2.037-0.721c-2.038-1.182-4.386-0.941-6.664-0.816c-2.859,0.156-5.688,0.897-8.475,1.503  c-2.843,0.618-6.195,0.615-9.06,0.196C37.432,45.988,33.531,45.665,34.932,44.069z"/><path d="M36.468,48.499c0.542-0.333,0.046-1.188-0.499-0.853c-2.013,1.236-2.219,4.148-1.954,6.264  c0.17,1.361,0.491,2.45,1.431,3.461c1.063,1.144,2.505,1.786,3.993,2.178c1.513,0.399,3.367-0.278,4.763-0.824  c1.328-0.519,2.372-1.596,3.227-2.7c0.944-1.219,1.401-2.429,1.465-3.645c0.148-0.195,0.167-0.48-0.003-0.641  c-0.078-1.315-0.595-2.638-1.438-3.988c-0.337-0.539-1.192-0.043-0.853,0.499c0.697,1.115,1.164,2.187,1.286,3.263  c-1.993-0.25-4.015-0.182-6.021-0.285c-2.317-0.119-4.628,0.394-6.943,0.477C35.024,50.408,35.437,49.131,36.468,48.499z   M40.586,52.234c-0.009,0.024-0.016,0.049-0.021,0.074c-0.011-0.025-0.023-0.05-0.038-0.071  C40.547,52.236,40.566,52.235,40.586,52.234z M38.476,52.404c-0.025,0.021-0.05,0.039-0.075,0.062c-0.32,0.3-0.07,0.841,0.349,0.844  c0.215,0.001,0.43,0.007,0.646,0.011c0.001,0.01,0.001,0.019,0.002,0.029c0.05,0.5,0.588,0.622,0.867,0.302  c0.188,0.16,0.4,0.295,0.673,0.389c0.498,0.171,0.789-0.482,0.481-0.826c-0.015-0.017-0.031-0.034-0.047-0.051  c0.081-0.058,0.143-0.14,0.174-0.253c0.072-0.267,0.044-0.473-0.061-0.713c2.094-0.059,4.346-0.003,6.413,0.306  c-0.082,0.856-0.405,1.724-1.031,2.629c-1.503,2.17-3.875,3.389-6.511,3.538c-1.196,0.068-2.727-0.743-3.623-1.451  c-1.054-0.833-1.487-1.821-1.701-3.112c-0.07-0.423-0.121-0.908-0.136-1.415C36.094,52.655,37.285,52.524,38.476,52.404z"/><path d="M65.464,49.749c-0.343-0.645-1.016-1.04-1.468-1.598c-0.402-0.495-1.096,0.209-0.699,0.699  c0.288,0.356,0.622,0.643,0.959,0.951c0.628,0.574,0.875,1.538,1.078,2.329c0.043,0.169,0.076,0.342,0.099,0.518  c-1.028-0.113-1.998-0.465-3.022-0.628c-1.106-0.175-2.211,0.053-3.31-0.229c-1.821-0.469-3.659,0.102-5.502,0.272  c0.656-1.375,1.738-2.637,2.656-3.677c0.42-0.476-0.276-1.178-0.699-0.699c-1.187,1.345-2.417,2.859-3.054,4.525  c-0.143,0.117-0.2,0.313-0.169,0.492c-0.343,1.126-0.397,2.318,0.024,3.57c0.405,1.204,1.132,2.258,2.172,2.982  c0.659,0.459,1.473,0.69,2.177,1.068c0.622,0.334,1.237,0.544,1.94,0.635c1.486,0.191,2.72,0.166,4.002-0.648  c1.292-0.821,2.519-1.987,3.22-3.353c0.391-0.762,0.339-1.728,0.5-2.547c0.143-0.727,0.116-1.388,0-2.117  C66.227,51.389,65.891,50.551,65.464,49.749z M65.095,56.233c-0.261,1.229-1.694,2.289-2.639,3.009  c-1.083,0.824-2.144,0.899-3.458,0.774c-1.22-0.117-2.315-0.803-3.416-1.304c-1.168-0.532-1.803-1.552-2.271-2.7  c-0.405-0.993-0.382-1.98-0.106-2.929c0.811-0.029,1.611-0.109,2.415-0.24c0.754-0.122,1.478-0.26,2.247-0.282  c0.097-0.003,0.196,0.005,0.296,0.017c-0.224,0.209-0.268,0.632,0.059,0.805c-0.026,0.249,0.191,0.532,0.455,0.594  c-0.001,0.009,0,0.018-0.001,0.027c-0.075,0.401,0.33,0.806,0.726,0.558c0.211-0.132,0.338-0.295,0.434-0.477  c0.096-0.025,0.181-0.081,0.248-0.156c0.118,0.057,0.237,0.112,0.364,0.148c0.575,0.166,0.807-0.587,0.381-0.903  c-0.107-0.079-0.22-0.141-0.336-0.196c0.697,0.011,1.402-0.045,2.095,0.064c0.984,0.156,1.9,0.494,2.89,0.597  C65.45,54.517,65.269,55.415,65.095,56.233z"/><path d="M49.104,67.345c1.365,0.119,2.461-0.765,3.065-1.898c0.944-1.768,0.385-3.929,0.308-5.818c-0.026-0.635-1.014-0.638-0.988,0  c0.087,2.12,1.061,6.327-2.062,6.718c-2.902,0.364-2.038-4.621-2.014-6.255c0.009-0.638-0.979-0.637-0.988,0  C46.39,62.494,45.599,67.038,49.104,67.345z"/><path d="M45.099,62.16c0.547-0.326,0.05-1.18-0.499-0.853c-1.723,1.026-3.903,1.42-5.878,1.048c-1.221-0.23-3.395-0.81-4.003-2.048  c-0.281-0.572-1.133-0.071-0.853,0.499c0.71,1.446,2.802,2.028,4.216,2.413C40.374,63.842,43.077,63.364,45.099,62.16z"/><path d="M64.681,61.841c-1.679,1.021-3.277,1.69-5.277,1.589c-0.89-0.045-1.763-0.192-2.628-0.398  c-0.98-0.234-1.586-0.669-2.439-1.155c-0.555-0.316-1.052,0.538-0.499,0.853c0.809,0.461,1.408,0.963,2.332,1.181  c1.072,0.253,2.136,0.428,3.234,0.508c2.148,0.155,3.977-0.631,5.776-1.724C65.724,62.364,65.227,61.509,64.681,61.841z"/><path d="M38.964,76.679c-0.581-0.356-0.938-0.906-1.301-1.467c-0.459-0.708-0.529-1.271-0.523-2.102  c0.005-0.638-0.984-0.637-0.988,0c-0.007,0.901,0.026,1.651,0.54,2.42c0.51,0.762,0.974,1.511,1.773,2.001  C39.01,77.866,39.507,77.011,38.964,76.679z"/><path d="M61.649,78.032c1.434-0.966,2.242-2.322,2.278-4.065c0.013-0.638-0.975-0.636-0.988,0c-0.028,1.38-0.649,2.444-1.788,3.211  C60.625,77.532,61.119,78.389,61.649,78.032z"/><path d="M59.997,74.346c-3.25-1.366-6.52-2.492-10.091-2.405c-3.533,0.086-7.063,1.219-10.431,2.191  c-0.611,0.176-0.351,1.13,0.263,0.953c1.244-0.359,2.499-0.729,3.765-1.059c0.019,0.42,0.103,0.822,0.427,1.146  c0.76,0.76,1.951,0.547,2.311,1.781c0.375,1.29,1.449,1.926,2.72,1.27c0.486-0.251,0.882-0.908,0.95-1.439  c0.089-0.705,0.214-1.114,0.756-1.572c0.261-0.22,0.455-0.427,0.639-0.711c0.294-0.454,0.337-1.05,0.164-1.554  c2.875,0.191,5.62,1.239,8.266,2.351C60.322,75.546,60.575,74.589,59.997,74.346z M49.522,74.917  c-0.689,0.676-0.329,1.633-0.926,2.339c-0.876,0.225-1.344,0.036-1.404-0.566c-0.029-0.141-0.073-0.276-0.133-0.405  c-0.184-0.366-0.382-0.624-0.689-0.903c-0.716-0.648-1.778-0.501-1.875-1.605c1.783-0.43,3.586-0.759,5.41-0.848  c0.111-0.005,0.221-0.006,0.332-0.008c0.035,0.023,0.072,0.044,0.116,0.06C51.29,73.322,49.755,74.689,49.522,74.917z"/><path d="M45.211,39.368c2.633,0.319,5.352,0.258,7.858-0.688c0.59-0.223,0.335-1.179-0.263-0.953  c-2.432,0.919-5.041,0.962-7.595,0.653C44.579,38.303,44.587,39.292,45.211,39.368z"/><path d="M42.153,41.729c0.98,0.092,1.878,0.329,2.875,0.348c1.114,0.021,2.244-0.032,3.345-0.209  c1.931-0.31,4.245-1.837,6.231-1.283c0.615,0.172,0.876-0.782,0.263-0.953c-1.668-0.465-3.54,0.366-5.082,0.911  c-2.511,0.889-5.086,0.437-7.632,0.198C41.518,40.681,41.524,41.67,42.153,41.729z"/></svg>
