<svg xmlns="http://www.w3.org/2000/svg" xmlns:xlink="http://www.w3.org/1999/xlink" version="1.1" x="0px" y="0px" viewBox="0 0 95 118.75" enable-background="new 0 0 95 95" xml:space="preserve" fill="#ffffff"><g><path d="M69.397,25.604c-5.849-5.851-13.625-9.07-21.897-9.07c-8.272,0-16.047,3.22-21.896,9.07   c-12.073,12.073-12.073,31.719,0,43.792c5.849,5.85,13.625,9.069,21.896,9.069c8.271,0,16.048-3.22,21.897-9.069   C81.469,57.324,81.469,37.678,69.397,25.604z M64.142,64.143c-4.446,4.443-10.356,6.893-16.642,6.893   c-6.287,0-12.196-2.449-16.641-6.893c-9.175-9.178-9.175-24.108,0-33.282c4.445-4.444,10.354-6.894,16.641-6.894   c6.286,0,12.196,2.449,16.642,6.894C73.317,40.034,73.317,54.965,64.142,64.143z"/><path d="M47.5,41.255c-1.669,0-3.236,0.647-4.416,1.827c-1.18,1.18-1.83,2.749-1.83,4.417c0,1.669,0.65,3.238,1.83,4.415   c1.18,1.182,2.748,1.831,4.417,1.831c1.667,0,3.236-0.649,4.414-1.83c1.18-1.178,1.831-2.747,1.831-4.416   c0-1.668-0.651-3.237-1.829-4.416C50.736,41.902,49.167,41.255,47.5,41.255z"/></g></svg>
