<svg xmlns="http://www.w3.org/2000/svg" xmlns:xlink="http://www.w3.org/1999/xlink" version="1.1" x="0px" y="0px" viewBox="0 0 100 125" enable-background="new 0 0 100 100" xml:space="preserve"><path fill="#ffffff" d="M94.957,15.181c0.002-0.026-0.009-0.049-0.009-0.075c0-0.044,0.009-0.088,0.003-0.133  c-0.005-0.04-0.023-0.075-0.033-0.113c-0.011-0.041-0.02-0.08-0.035-0.119c-0.032-0.083-0.077-0.159-0.13-0.229  c-0.017-0.023-0.027-0.048-0.047-0.069c-0.076-0.087-0.168-0.16-0.271-0.215c-0.025-0.014-0.055-0.019-0.081-0.031  c-0.062-0.027-0.121-0.058-0.188-0.072L46.268,4.049c-0.052-0.011-0.104-0.009-0.157-0.012c-0.017-0.001-0.032-0.01-0.049-0.01  c-0.003,0-0.006,0-0.009,0c-0.007,0-0.013,0.004-0.02,0.004c-0.1,0.003-0.199,0.017-0.294,0.05L5.717,17.73  c-0.029,0.01-0.052,0.03-0.08,0.042c-0.041,0.019-0.079,0.039-0.117,0.062c-0.067,0.042-0.126,0.09-0.181,0.145  c-0.029,0.029-0.058,0.054-0.083,0.086c-0.058,0.074-0.102,0.157-0.137,0.245c-0.009,0.022-0.024,0.041-0.031,0.064  c-0.033,0.104-0.051,0.213-0.048,0.327c0,0.011,0.005,0.021,0.006,0.031c0,0.009-0.003,0.016-0.003,0.025l4.53,54.903  c0.001,0.018,0.011,0.031,0.013,0.048c0.013,0.094,0.038,0.183,0.075,0.268c0.013,0.03,0.027,0.059,0.043,0.088  c0.043,0.077,0.097,0.148,0.16,0.212c0.015,0.016,0.026,0.033,0.042,0.047c0.073,0.065,0.154,0.122,0.245,0.164l46.403,21.393  c0.003,0.001,0.006,0.001,0.009,0.002c0.122,0.055,0.255,0.088,0.397,0.09c0.004,0,0.009,0,0.013,0c0.123,0,0.243-0.027,0.358-0.072  c0.045-0.017,0.08-0.045,0.121-0.067c0.051-0.028,0.105-0.048,0.151-0.085l32.811-26.705c0.009-0.008,0.015-0.018,0.024-0.025  c0.021-0.02,0.038-0.042,0.059-0.062c0.059-0.061,0.107-0.126,0.148-0.198c0.017-0.028,0.032-0.055,0.045-0.085  c0.046-0.102,0.078-0.207,0.088-0.319c0-0.002,0.002-0.004,0.002-0.007L94.957,15.181z M66.181,53.48l-7.64-2.571l0.147-11.481  l8.077-4.3L66.181,53.48z M35.438,55.134l-0.606-18.655l10.535,3.27l0.086,9.797L35.438,55.134z M56.704,38.22l-3.506,1.867  l-3.283-1.019l-0.026-6.887l6.868,1.952L56.704,38.22z M49.949,48.019l-0.026-6.854l2.374,0.737l-0.031,6.897L49.949,48.019z   M47.913,38.446l-0.56-0.174l-0.06-6.83l0.593,0.168L47.913,38.446z M45.348,37.649l-8.768-2.722l8.709-3.989L45.348,37.649z   M47.372,40.372l0.549,0.17l0.029,7.61l-0.507,0.284L47.372,40.372z M49.169,49.866l3.086,1.039l-0.014,3.102l-4.534-1.594  L49.169,49.866z M54.253,51.577l2.27,0.764l-0.041,3.157l-2.243-0.789L54.253,51.577z M54.263,49.47l0.034-7.703l2.378-1.266  l-0.125,9.738L54.263,49.47z M67.943,32.431l-3.929-1.086l19.569-9.882L67.943,32.431z M65.136,33.73l-6.417,3.417l0.04-3.148  l2.601-1.313L65.136,33.73z M57.664,32.311l-7.784-2.212l-0.002-0.587l8.613,2.382L57.664,32.311z M47.262,27.834l-0.063-7.212  l0.833,6.86L47.262,27.834z M33.569,34.107L12.248,21.481l30.166,8.575L33.569,34.107z M32.795,35.392l0.689,21.205L12.395,71.385  l-0.957,0.547L7.17,20.218L32.795,35.392z M34.351,57.821l1.062,0.399l-8.846,5.059L34.351,57.821z M36.861,56.63l8.61-4.805  l0.006,0.64l-7.812,4.468L36.861,56.63z M46.582,54.137l5.65,1.986l-0.028,6.274l-12.108-4.552L46.582,54.137z M56.386,62.976  l-0.244,18.915l-2.11-17.398L56.386,62.976z M54.206,62l0.022-5.175l2.226,0.783l-0.038,2.968L54.206,62z M58.445,58.309  l0.964,0.339l-0.976,0.629L58.445,58.309z M58.473,56.198l0.041-3.188l6.335,2.132l-3.311,2.133L58.473,56.198z M67.395,55.882  l14.358,8.502l-17.826-6.268L67.395,55.882z M88.891,66.867L68.146,54.583l0.667-20.929l24.01-16.837L88.891,66.867z M61.147,30.552  l-11.623-3.213l-2.444-20.14l-0.008-0.938l43.894,9.233L61.147,30.552z M45.074,6.421l0.196,22.326l-0.055,0.025L9.392,18.59  L45.074,6.421z M37.843,59.135l14.699,5.526l3.455,28.484l-0.004,0.274L12.751,73.484L37.843,59.135z M58.001,92.848l0.401-31.172  l3.396-2.188l25.97,9.132L58.001,92.848z"/></svg>
